<svg xmlns="http://www.w3.org/2000/svg" width="260" height="260" viewBox="0 0 260 260"><path d="M167.917 75.833q0 2.2-1.608 3.808-1.61 1.61-3.81 1.61t-3.808-1.61q-1.61-1.607-1.61-3.807 0-7.787-9.14-12.02-9.14-4.23-17.942-4.23-2.2 0-3.808-1.608-1.608-1.61-1.608-3.81t1.608-3.808Q127.8 48.75 130 48.75q8.464 0 16.843 2.708 8.378 2.708 14.726 9.14 6.347 6.432 6.347 15.235zm27.083 0q0-12.188-5.84-22.683-5.84-10.494-15.234-17.18-9.395-6.687-20.82-10.495-11.426-3.81-23.106-3.81-11.68 0-23.105 3.81-11.426 3.808-20.82 10.494-9.395 6.686-15.235 17.18Q65 63.645 65 75.833 65 92.93 76.51 106.3q1.694 1.863 5.164 5.587 3.47 3.724 5.162 5.586 21.667 25.898 23.867 50.442h38.594q2.2-24.544 23.867-50.442 1.693-1.862 5.163-5.586t5.163-5.586Q195 92.93 195 75.834zm21.666 0q0 26.236-17.434 45.364-7.617 8.294-12.61 14.726-4.994 6.433-10.073 16.166-5.08 9.732-5.756 18.195 7.956 4.74 7.956 13.88 0 6.263-4.232 10.834 4.232 4.57 4.232 10.832 0 8.802-7.617 13.71 2.2 3.894 2.2 7.956 0 7.787-5.332 12.02-5.33 4.23-13.117 4.23-3.385 7.448-10.156 11.85-6.77 4.4-14.727 4.4-7.955 0-14.726-4.4-6.77-4.402-10.156-11.85-7.787 0-13.12-4.23-5.33-4.233-5.33-12.02 0-4.062 2.2-7.955-7.618-4.91-7.618-13.71 0-6.264 4.232-10.834-4.232-4.572-4.232-10.835 0-9.14 7.956-13.88-.677-8.463-5.755-18.196-5.077-9.734-10.07-16.167-4.994-6.432-12.61-14.726-17.436-19.128-17.436-45.364 0-16.758 7.533-31.23Q58.4 30.13 70.67 20.565 82.944 11.002 98.43 5.5 113.92 0 130 0t31.57 5.5q15.487 5.502 27.76 15.066 12.27 9.564 19.804 24.036 7.532 14.473 7.532 31.23z"/></svg>